<?xml version="1.0" standalone="no"?>
<!DOCTYPE svg PUBLIC "-//W3C//DTD SVG 20010904//EN"
 "http://www.w3.org/TR/2001/REC-SVG-20010904/DTD/svg10.dtd">
<svg version="1.0" xmlns="http://www.w3.org/2000/svg"
 width="512.000000pt" height="512.000000pt" viewBox="0 0 512.000000 512.000000"
 preserveAspectRatio="xMidYMid meet">
<metadata>
Created by potrace 1.14, written by Peter Selinger 2001-2017
</metadata>
<g transform="translate(0.000000,512.000000) scale(0.100000,-0.100000)"
fill="#000000" stroke="none">
<path d="M3213 4777 c-3 -4 -11 -6 -19 -3 -19 7 -13 -17 6 -26 12 -5 10 -7 -5
-8 l-20 -1 20 -9 20 -9 -20 -1 -20 -1 20 -9 c17 -7 17 -9 3 -9 -10 -1 -18 -9
-18 -18 0 -15 -2 -16 -10 -3 -8 13 -13 13 -30 2 -16 -10 -25 -10 -35 -2 -10 8
-15 8 -21 -1 -4 -8 -3 -9 4 -5 7 4 10 -3 9 -21 -1 -19 2 -27 11 -25 8 1 11 -2
7 -8 -3 -6 -10 -8 -15 -5 -4 3 -10 -1 -13 -9 -3 -7 -15 -16 -26 -19 -12 -3
-19 -2 -17 2 3 4 -7 6 -21 5 -20 0 -27 -7 -29 -25 -4 -23 -3 -23 11 -5 8 11
17 17 20 15 3 -3 -4 -15 -15 -27 -14 -14 -16 -22 -8 -22 10 0 10 -2 0 -9 -11
-7 -10 -9 3 -14 11 -5 14 -3 9 5 -5 7 -2 9 7 6 8 -3 23 0 34 8 10 8 24 14 29
14 6 0 5 -4 -3 -9 -9 -6 -10 -11 -2 -15 6 -4 11 -17 11 -30 0 -12 5 -27 11
-33 8 -8 7 -13 -2 -18 -8 -5 -10 -4 -5 3 10 17 1 15 -14 -4 -8 -8 -9 -14 -4
-13 22 4 44 -2 44 -12 0 -5 -5 -7 -12 -3 -7 5 -8 3 -3 -6 6 -10 11 -10 20 3
16 22 25 21 25 0 1 -17 1 -17 11 0 6 9 15 15 20 11 6 -3 5 -12 -3 -22 -8 -9
-8 -13 -2 -9 7 4 15 0 18 -9 3 -8 2 -13 -3 -10 -5 3 -12 -1 -15 -10 -9 -24 -7
-31 4 -14 8 12 10 11 10 -6 0 -24 29 -31 80 -20 l25 5 -22 -19 c-13 -10 -23
-24 -23 -32 1 -8 4 -7 11 5 16 27 28 20 24 -13 -2 -16 -1 -30 3 -30 4 0 7 -19
5 -42 -2 -32 0 -39 8 -28 9 12 10 10 6 -7 -4 -20 -2 -21 14 -12 10 5 19 12 19
15 0 3 -4 3 -9 0 -4 -3 -13 6 -20 20 -14 32 -15 29 10 31 16 2 18 -1 9 -12 -9
-11 -7 -16 9 -24 13 -7 18 -18 15 -29 -4 -10 -2 -13 3 -7 11 14 33 17 33 6 0
-6 -5 -13 -11 -16 -7 -5 -2 -16 12 -31 12 -13 19 -27 16 -31 -4 -3 -7 -1 -7 5
0 7 -4 12 -8 12 -11 0 -9 -37 3 -47 4 -5 5 -2 1 5 -4 6 -2 12 3 12 6 0 11 -4
11 -9 0 -11 26 -9 37 3 4 4 2 6 -6 4 -7 -1 -16 4 -18 12 -3 9 -1 11 4 5 4 -5
15 -11 23 -13 8 -2 21 -8 30 -13 13 -9 13 -10 -2 -5 -12 3 -15 1 -11 -10 3 -7
10 -14 17 -15 6 0 2 -4 -9 -9 -11 -5 -14 -9 -7 -9 7 -1 10 -5 7 -11 -3 -5 -1
-10 6 -10 8 0 8 -4 1 -13 -9 -10 -5 -13 18 -11 17 1 30 -2 30 -8 0 -5 -9 -7
-19 -3 -11 3 -22 1 -26 -4 -4 -7 1 -8 11 -4 10 4 15 2 11 -3 -8 -13 10 -41 20
-31 4 5 1 12 -7 18 -11 7 -9 8 10 5 14 -3 28 -5 33 -5 11 -1 8 -29 -5 -37 -6
-4 -8 -3 -4 4 3 6 2 13 -4 17 -6 3 -12 0 -15 -7 -3 -8 -14 -14 -25 -15 -12 -1
-17 3 -14 12 3 7 1 15 -4 19 -5 3 -8 -4 -7 -15 2 -24 24 -41 40 -31 11 7 57
11 50 4 -2 -3 6 -13 18 -24 12 -11 17 -17 11 -14 -7 3 -18 -2 -25 -11 -11 -13
-11 -17 -2 -20 9 -3 11 -14 7 -31 -6 -26 -6 -27 11 -7 l17 20 -7 -20 c-4 -11
-8 -27 -9 -35 -1 -9 -5 -21 -9 -27 -4 -6 -2 -15 4 -19 8 -4 9 -3 5 4 -10 16 7
15 23 0 8 -7 6 -1 -3 13 -16 25 -13 64 5 54 4 -3 6 -12 3 -19 -3 -7 5 -24 17
-37 l21 -24 -16 27 c-20 34 -20 38 -1 38 8 0 15 4 15 10 0 5 -7 7 -15 4 -10
-4 -13 -2 -10 8 3 8 12 15 20 15 8 0 12 -4 9 -8 -2 -4 1 -11 6 -14 7 -5 5 -12
-7 -22 -10 -8 -13 -12 -6 -9 6 4 15 1 19 -5 5 -8 3 -9 -6 -4 -10 6 -12 4 -7
-9 4 -10 7 -22 7 -27 0 -6 6 -7 13 -3 9 6 9 5 0 -7 -10 -12 -10 -18 0 -29 8
-9 9 -11 0 -6 -8 4 -11 -2 -9 -21 2 -15 8 -29 14 -31 9 -3 9 -9 0 -25 -6 -12
-12 -30 -13 -39 -1 -14 1 -15 12 -6 8 6 12 17 9 25 -3 8 -2 12 2 9 4 -2 14 0
22 6 12 8 11 9 -5 4 -20 -6 -20 -6 -1 9 11 8 14 15 8 15 -7 0 -12 5 -12 11 0
8 6 7 17 -2 9 -8 18 -13 20 -11 1 1 9 2 16 2 9 0 8 -3 -2 -9 -9 -6 -10 -11 -2
-15 7 -5 8 -13 1 -25 -6 -12 -6 -21 1 -28 5 -5 12 -22 15 -36 3 -20 0 -27 -11
-27 -8 0 -15 -4 -15 -10 0 -5 5 -9 11 -7 6 1 14 -4 17 -12 3 -9 0 -11 -9 -6
-11 6 -11 5 -2 -5 6 -7 9 -19 6 -28 -5 -11 -3 -13 8 -7 12 8 12 6 0 -8 -7 -9
-10 -17 -6 -17 4 0 2 -6 -4 -14 -7 -8 -8 -17 -3 -20 5 -3 8 -23 7 -46 -2 -33
1 -40 17 -40 11 0 16 -5 13 -10 -4 -6 -11 -7 -17 -4 -7 4 -7 0 0 -12 5 -11 7
-24 5 -31 -6 -17 16 -26 32 -13 8 7 15 9 15 5 0 -4 6 -3 13 3 11 9 13 5 13
-18 0 -18 -4 -26 -10 -23 -8 5 -8 3 0 -8 15 -20 16 -61 1 -53 -8 5 -8 3 1 -7
6 -7 12 -24 12 -37 0 -15 4 -21 13 -17 6 4 4 0 -5 -7 -15 -13 -15 -18 -3 -42
8 -14 10 -24 6 -21 -5 2 -11 -6 -13 -20 -4 -18 -1 -25 11 -25 12 0 13 -2 3 -8
-13 -9 -12 -38 2 -61 6 -10 5 -12 -2 -7 -7 4 -12 1 -12 -8 0 -19 11 -21 28 -4
8 8 12 8 12 1 0 -6 -7 -14 -16 -17 -9 -4 -14 -9 -11 -13 4 -3 -1 -12 -11 -19
-16 -12 -16 -12 0 -11 9 1 17 -2 17 -8 0 -5 -7 -9 -15 -7 -8 2 -14 -2 -14 -8
0 -6 5 -8 12 -4 8 5 9 2 5 -9 -3 -10 -2 -17 3 -17 6 0 10 -5 10 -11 0 -5 -4
-7 -10 -4 -5 3 -10 -2 -10 -13 0 -10 7 -19 15 -19 8 0 15 6 15 14 0 16 16 17
26 1 4 -6 3 -8 -3 -5 -6 4 -14 0 -17 -8 -3 -8 -11 -14 -17 -13 -6 2 -14 -3
-16 -10 -3 -8 2 -10 14 -6 17 5 17 5 1 -6 -22 -14 -24 -47 -3 -47 17 0 20 13
5 20 -6 3 -5 4 2 3 18 -4 16 -31 -1 -31 -8 0 -16 -6 -19 -13 -2 -8 3 -10 15
-6 17 5 17 5 1 -6 -19 -12 -25 -40 -8 -40 6 0 10 -5 10 -11 0 -6 -7 -9 -14 -6
-16 6 -12 -16 7 -41 7 -9 5 -11 -9 -6 -17 5 -17 4 -3 -8 15 -12 15 -15 1 -28
-9 -8 -11 -15 -5 -17 5 -2 8 -16 5 -30 -4 -21 -2 -25 11 -20 9 3 19 2 22 -4 4
-5 3 -9 -2 -8 -23 4 -43 -2 -38 -11 13 -21 9 -98 -6 -116 -13 -16 -12 -17 5
-11 14 6 16 4 9 -5 -5 -7 -9 -28 -8 -45 2 -24 -3 -34 -17 -39 -10 -3 -16 -10
-12 -15 4 -6 11 -6 19 1 10 9 13 7 10 -7 -2 -10 -4 -20 -5 -23 -1 -3 -2 -8 -1
-12 0 -4 -7 -5 -17 -1 -14 5 -15 3 -4 -8 6 -7 12 -18 12 -23 0 -6 -7 0 -16 12
-8 12 -20 20 -25 16 -6 -3 -3 -12 8 -21 17 -13 17 -14 -2 -5 -15 6 -24 4 -37
-9 -15 -15 -15 -18 -1 -23 12 -5 13 -9 3 -21 -7 -8 -10 -15 -7 -15 3 0 2 -14
-3 -30 -5 -19 -5 -28 1 -25 5 4 9 1 9 -4 0 -6 -3 -11 -8 -11 -4 0 -7 -18 -6
-40 0 -21 -3 -37 -8 -34 -4 3 -6 9 -3 14 3 5 1 11 -5 15 -6 4 -8 12 -4 18 3 7
-1 4 -9 -6 -15 -18 -16 -18 -26 0 -6 11 -11 13 -11 5 0 -8 -5 -10 -12 -6 -10
6 -10 4 0 -7 18 -20 15 -33 -5 -18 -15 11 -14 10 1 -9 19 -22 19 -22 0 -23
-11 0 -13 -3 -6 -6 6 -2 9 -10 5 -16 -11 -18 -12 -36 -2 -43 5 -3 6 -11 2 -17
-5 -7 -9 -25 -10 -42 0 -16 -2 -33 -2 -38 -1 -10 -24 -5 -34 8 -5 6 -7 4 -4
-5 2 -8 10 -14 16 -12 6 1 11 -7 11 -19 0 -13 4 -18 13 -13 8 5 8 3 -2 -9 -7
-9 -18 -14 -23 -11 -6 4 -14 0 -19 -7 -7 -11 -9 -11 -9 -1 0 7 -5 10 -12 6 -6
-4 -8 -3 -5 2 3 5 -3 10 -13 10 -14 0 -16 -3 -8 -13 6 -7 7 -13 2 -13 -4 0 -3
-5 4 -12 9 -9 8 -16 -5 -30 -13 -15 -14 -18 -2 -18 8 0 21 6 29 13 12 10 12 9
1 -5 -7 -10 -20 -18 -28 -18 -10 0 -14 -7 -10 -20 7 -26 -17 -26 -43 0 -11 11
-20 15 -20 10 0 -6 13 -19 30 -28 30 -17 48 -42 29 -42 -6 0 -8 -4 -5 -8 2 -4
-4 -8 -14 -8 -10 0 -16 4 -14 8 3 4 1 8 -5 8 -5 0 -11 -6 -14 -12 -2 -7 -3 -5
-2 4 3 19 -21 45 -32 34 -3 -3 -2 -6 3 -6 5 0 10 -9 11 -19 1 -15 -3 -18 -15
-14 -15 6 -15 5 -3 -10 9 -12 10 -17 2 -17 -7 0 -9 -5 -6 -10 4 -6 12 -8 18
-4 7 3 5 -1 -5 -8 -12 -11 -14 -18 -6 -32 8 -15 8 -17 -2 -11 -10 6 -12 4 -7
-9 5 -12 3 -15 -6 -9 -6 4 -27 8 -44 9 -26 1 -33 -3 -33 -18 0 -10 5 -18 11
-18 5 0 7 4 4 10 -4 6 1 7 11 3 11 -4 15 -3 11 4 -4 6 -1 10 5 9 21 -3 38 -16
38 -29 0 -7 -4 -6 -10 3 -5 8 -10 13 -11 10 0 -3 -2 -13 -4 -22 -2 -11 2 -15
11 -11 8 3 14 1 14 -4 0 -5 -9 -9 -20 -10 -11 -1 -20 3 -20 8 0 6 -5 7 -10 4
-6 -4 -7 -12 -4 -18 5 -8 3 -8 -7 1 -18 17 -30 15 -23 -3 5 -11 -1 -15 -20
-15 -14 0 -26 -4 -26 -9 0 -5 6 -8 13 -7 6 0 12 -2 12 -5 0 -3 7 -14 15 -24 9
-11 10 -16 3 -11 -8 4 -13 2 -13 -7 0 -9 -9 -14 -22 -13 -13 1 -26 -2 -29 -7
-4 -5 -6 3 -6 17 0 25 1 26 17 11 15 -13 19 -13 29 -1 9 11 8 15 -3 19 -11 4
-13 1 -9 -11 6 -14 4 -15 -9 -4 -9 7 -14 24 -12 40 2 24 1 25 -10 10 -7 -10
-15 -16 -18 -13 -2 3 -4 -13 -3 -35 1 -37 0 -39 -23 -35 -13 2 -21 1 -17 -3 3
-4 11 -7 17 -7 6 0 13 -11 15 -24 3 -20 1 -22 -11 -12 -11 9 -16 9 -22 0 -4
-7 -3 -9 3 -6 6 4 16 0 23 -8 10 -12 10 -15 0 -15 -7 0 -10 -7 -6 -16 4 -9 2
-13 -5 -8 -6 4 -16 0 -21 -7 -8 -11 -9 -10 -4 4 3 11 0 17 -10 17 -8 0 -13 -4
-9 -9 3 -5 0 -13 -6 -17 -7 -4 -9 -3 -6 3 4 6 1 16 -6 21 -10 9 -14 2 -15 -31
-2 -31 0 -38 8 -27 7 11 10 12 10 2 0 -8 -10 -16 -22 -20 -21 -5 -21 -6 -2
-13 17 -7 17 -8 -4 -8 -15 -1 -21 -5 -16 -13 4 -7 3 -8 -5 -4 -6 4 -9 11 -7
15 3 4 -6 7 -20 7 -33 -2 -56 -41 -43 -73 8 -22 1 -29 -25 -24 -5 1 -4 -5 4
-13 7 -9 9 -16 4 -16 -5 0 -2 -5 6 -10 8 -5 10 -10 4 -10 -6 0 -11 -12 -11
-26 0 -14 4 -23 11 -21 6 3 11 -7 11 -22 1 -14 4 -37 9 -51 5 -19 5 -21 -3
-10 -7 9 -11 10 -11 3 0 -16 17 -26 24 -14 10 15 66 10 66 -6 0 -8 4 -12 9 -8
15 8 21 -9 9 -25 -8 -12 -8 -11 -3 5 3 11 2 16 -2 11 -4 -4 -8 -20 -9 -35 0
-19 5 -27 18 -28 12 -1 16 3 11 10 -5 9 -3 9 8 0 20 -16 166 -12 166 5 0 6 -3
12 -7 12 -4 0 -7 7 -7 15 0 8 4 15 9 15 4 0 7 3 7 8 -4 22 4 29 31 30 17 0 30
-4 30 -9 0 -5 6 -4 14 3 7 7 12 28 11 48 -3 44 10 63 35 50 13 -7 21 -7 26 1
4 8 9 7 15 -2 6 -11 9 -10 15 4 3 9 11 14 18 10 6 -3 2 4 -9 17 -17 20 -17 22
-3 17 12 -4 15 -2 11 9 -5 13 -8 13 -28 0 -18 -12 -22 -12 -22 -1 0 8 4 12 7
10 11 -7 51 31 42 40 -4 5 -1 5 6 1 7 -4 10 -11 7 -16 -3 -5 0 -12 6 -16 8 -4
9 -3 5 4 -4 7 -1 12 7 12 8 0 19 10 25 23 10 20 11 20 9 2 -1 -11 2 -20 8 -20
5 0 9 3 8 7 -2 5 2 8 9 8 9 0 9 3 0 12 -16 16 -15 31 1 22 8 -5 8 -2 -2 9 -10
13 -10 17 -1 17 7 0 10 8 7 19 -4 17 -2 18 13 8 10 -6 16 -16 12 -22 -3 -5 1
-4 10 2 8 7 17 11 19 9 2 -2 5 7 5 20 2 20 -1 23 -12 13 -8 -6 -11 -16 -7 -23
3 -6 -3 -3 -14 7 -16 14 -21 35 -14 66 1 2 7 -1 14 -8 10 -8 17 -7 27 2 10 9
11 9 6 -1 -4 -6 -2 -12 4 -12 6 0 8 -4 5 -10 -3 -6 1 -7 10 -3 12 4 13 8 5 13
-9 6 -8 13 3 31 8 13 13 32 12 42 -2 9 1 15 6 11 5 -3 9 -1 9 5 0 5 -8 12 -17
15 -10 3 -4 4 14 2 18 -1 30 1 27 6 -3 4 -1 8 5 8 19 0 21 -19 4 -29 -10 -6
-13 -11 -7 -11 14 0 41 30 28 31 -5 0 2 5 16 11 21 9 22 12 7 15 -9 3 -15 9
-11 14 3 5 11 6 17 2 7 -4 4 6 -7 21 -10 16 -13 25 -7 22 10 -7 16 6 12 27 -1
5 4 5 11 1 7 -5 30 -9 52 -10 25 -1 34 1 25 7 -12 7 -12 9 0 9 8 0 0 13 -18
31 -18 17 -30 33 -27 36 3 4 17 -7 31 -23 14 -16 25 -22 23 -14 -2 8 -10 21
-18 28 -8 8 -9 11 -2 7 6 -3 12 -1 12 5 0 6 4 9 9 5 5 -3 12 -1 15 4 4 5 1 13
-5 17 -8 5 -9 3 -4 -7 5 -8 4 -11 0 -6 -14 12 -13 47 1 47 7 0 15 4 19 9 3 6
-3 8 -14 6 -13 -2 -18 1 -15 10 8 20 70 14 66 -7 -1 -9 3 -20 9 -24 8 -5 9 -3
5 5 -5 7 0 21 11 33 10 12 12 18 6 14 -15 -8 -18 10 -4 18 10 7 9 25 -2 43 -4
6 0 19 9 27 18 18 39 22 28 4 -4 -7 -3 -8 4 -4 16 10 15 14 -9 27 -17 9 -20 8
-14 -2 5 -7 4 -10 -2 -6 -11 7 -11 46 0 64 9 14 58 7 69 -10 5 -8 8 -6 8 6 0
12 4 16 13 11 9 -6 9 -5 0 7 -10 12 -10 18 0 29 10 12 9 12 -4 2 -14 -11 -17
-10 -15 5 0 11 -5 17 -14 15 -8 -2 -11 0 -7 4 12 12 38 14 31 2 -4 -7 -2 -8 5
-4 9 6 9 11 0 22 -9 11 -9 14 0 14 8 0 9 6 3 18 -13 26 -7 61 15 85 35 39 38
50 12 42 -13 -4 -21 -4 -17 0 4 5 3 13 -2 20 -7 8 -5 12 5 12 8 0 12 -4 9 -9
-3 -4 2 -8 11 -8 10 0 13 5 9 12 -5 7 -3 8 6 3 10 -6 12 -4 6 11 -6 15 -5 16
5 7 10 -10 9 -15 -1 -28 -15 -18 0 -20 20 -2 12 10 12 9 2 -4 -6 -8 -10 -25
-7 -37 2 -12 -1 -25 -7 -28 -6 -4 -8 -3 -5 3 4 6 0 13 -8 17 -8 3 -17 1 -20
-3 -3 -5 2 -12 11 -15 9 -3 12 -11 8 -18 -6 -10 -5 -11 8 -1 8 7 19 9 23 5 5
-4 5 -1 1 5 -4 7 -4 13 1 13 4 0 9 20 9 45 1 24 -2 42 -6 40 -5 -3 -6 4 -3 15
3 11 10 17 17 13 6 -3 2 4 -9 17 -11 13 -15 21 -9 17 8 -4 12 9 13 41 1 26 3
70 5 97 1 28 -2 56 -7 63 -8 9 -6 12 4 10 8 -2 13 3 11 10 -3 18 15 15 22 -4
3 -8 10 -13 15 -9 5 3 13 0 17 -6 4 -8 3 -9 -5 -5 -7 5 -10 2 -9 -6 2 -7 -2
-12 -8 -11 -6 1 -11 -8 -10 -20 0 -12 -4 -21 -11 -20 -7 2 -10 -4 -7 -12 4
-11 11 -8 28 12 17 20 25 23 31 13 5 -8 4 -11 -2 -7 -12 8 -39 -20 -30 -30 4
-3 13 -1 20 5 8 7 18 8 22 4 5 -4 5 -2 2 5 -4 6 -1 14 5 16 10 4 10 6 0 6 -7
1 -10 6 -7 11 3 6 -2 10 -11 10 -10 0 -14 3 -10 8 4 4 13 7 19 7 15 0 17 147
2 157 -6 5 -5 8 3 8 6 0 12 7 12 16 0 8 -4 12 -10 9 -6 -3 -10 -1 -10 4 0 6 5
11 10 11 6 0 10 5 10 11 0 5 -6 7 -12 3 -10 -5 -10 -4 -2 5 7 7 9 29 7 48 -4
27 -2 33 8 28 8 -6 10 -4 3 6 -11 18 -14 39 -5 39 4 0 7 9 7 20 0 11 -5 20
-11 20 -5 0 -3 5 5 10 8 5 10 10 4 10 -13 0 -13 48 -1 67 4 6 1 14 -5 16 -8 4
-7 6 4 6 9 1 19 5 22 10 4 5 -4 7 -16 5 -13 -2 -17 -2 -10 2 6 3 9 11 5 17 -3
6 -7 26 -9 44 -1 24 2 33 11 29 8 -3 11 2 8 15 -3 10 -8 17 -12 15 -4 -3 -8 4
-8 15 -1 10 2 20 8 20 5 1 14 2 21 3 15 1 22 23 9 31 -6 3 -8 0 -5 -9 4 -10 0
-14 -12 -12 -9 2 -18 10 -20 19 -1 10 2 15 7 11 5 -3 9 -1 9 5 0 5 -6 11 -12
14 -10 3 -10 8 1 18 12 12 13 12 6 0 -6 -10 -4 -12 5 -6 10 6 10 10 -3 20 -13
9 -14 14 -4 24 8 8 8 14 2 19 -13 9 -16 42 -4 42 5 0 1 12 -8 27 -10 15 -12
24 -5 20 15 -10 15 -2 2 23 -7 13 -7 21 2 26 7 4 8 3 4 -4 -4 -7 -2 -12 3 -12
13 0 14 17 2 25 -5 3 -9 30 -8 59 2 30 -1 52 -5 50 -5 -3 -8 0 -8 5 0 6 6 11
13 11 7 0 5 5 -5 11 -9 5 -15 16 -12 24 4 8 11 12 16 9 6 -4 6 1 -1 13 -6 11
-7 23 -4 27 3 3 2 6 -3 6 -5 0 -10 9 -11 21 -2 18 0 19 14 7 14 -11 15 -11 8
2 -14 22 -15 43 -5 55 7 8 5 12 -5 12 -8 0 -12 -4 -9 -9 3 -4 -3 -8 -13 -8
-11 0 -25 -6 -32 -12 -12 -11 -13 -10 -7 6 6 17 5 17 -11 5 -15 -12 -16 -12
-10 3 3 9 1 19 -6 22 -7 3 -2 3 10 0 13 -3 27 -3 32 1 12 7 3 35 -11 35 -6 0
-5 -6 2 -15 10 -12 10 -15 -3 -15 -8 0 -20 6 -26 14 -10 11 -8 17 6 25 15 9
16 10 2 11 -9 0 -22 7 -29 16 -8 8 -9 14 -4 13 30 -5 36 2 15 20 -18 16 -19
20 -6 25 11 4 14 2 9 -6 -4 -7 -3 -8 5 -4 9 6 9 11 0 23 -10 12 -10 17 2 25
11 8 11 9 -3 4 -12 -3 -18 0 -18 10 0 9 5 12 13 8 10 -6 10 -4 0 7 -21 21 -38
-3 -23 -32 10 -20 10 -22 -1 -12 -10 10 -17 9 -33 -5 -21 -17 -21 -17 -3 4 19
23 22 44 6 44 -5 0 -8 -4 -4 -9 3 -6 -5 -15 -17 -21 -21 -10 -22 -10 -5 3 10
9 14 17 10 20 -5 3 -10 20 -11 38 -1 18 -4 35 -7 37 -2 2 1 16 6 30 9 23 8 24
-8 11 -17 -13 -17 -13 -4 4 9 11 11 21 5 25 -14 11 -18 45 -3 36 8 -4 10 -3 5
5 -4 6 -11 9 -15 7 -4 -3 -8 1 -8 9 0 8 4 12 8 9 4 -2 10 0 14 6 3 5 1 10 -5
10 -6 0 -9 4 -5 9 3 5 1 13 -5 16 -8 5 -7 11 1 21 7 9 8 14 3 13 -21 -4 -35 2
-29 11 4 6 10 8 14 6 4 -3 8 1 8 8 0 7 -6 13 -13 13 -7 0 -11 -4 -9 -8 3 -3
-2 -12 -10 -19 -12 -10 -18 -10 -30 0 -9 8 -15 8 -15 2 0 -6 5 -12 12 -14 8
-3 7 -6 -3 -10 -12 -5 -15 1 -15 22 0 18 4 26 10 23 6 -4 5 1 -2 10 -8 9 -11
21 -7 27 3 5 1 10 -6 10 -8 0 -8 4 1 15 15 18 10 25 -18 28 -14 1 -19 7 -16
21 4 24 -13 47 -31 40 -16 -7 -22 3 -26 41 -2 17 -8 33 -14 37 -6 5 -4 8 5 8
13 0 13 1 0 10 -11 7 -12 12 -4 18 9 5 8 11 -2 20 -12 11 -14 9 -15 -10 -1
-16 -3 -18 -6 -6 -2 9 -11 19 -19 22 -11 4 -14 1 -9 -13 3 -11 1 -22 -4 -26
-7 -4 -8 1 -4 11 4 12 3 15 -5 10 -8 -5 -10 -1 -5 10 5 12 3 15 -6 9 -10 -6
-12 4 -10 41 l4 49 -35 1 c-19 0 -38 -4 -42 -10 -4 -6 -6 4 -4 22 3 26 1 30
-10 21 -10 -8 -14 -8 -14 -1 0 6 5 14 11 18 8 4 7 9 -2 15 -11 7 -10 9 3 9 9
0 20 -9 23 -20 3 -11 11 -20 16 -20 5 0 2 11 -7 25 -9 14 -23 25 -30 25 -8 0
-14 5 -14 11 0 6 -10 8 -22 5 l-23 -6 23 11 c26 14 30 34 5 24 -10 -4 -24 -9
-30 -12 -8 -3 -13 3 -13 13 0 15 -2 16 -9 5 -5 -8 -11 -9 -15 -3 -3 5 1 12 9
16 8 3 19 -3 24 -12 6 -10 11 -12 11 -4 0 7 -7 24 -16 38 -13 19 -19 22 -31
12 -11 -9 -13 -8 -11 3 2 8 -2 13 -8 12 -15 -3 -10 37 6 47 8 5 11 12 7 16 -4
4 -13 2 -19 -4 -7 -7 -17 -12 -22 -12 -6 0 0 9 14 19 l24 19 -26 -1 c-14 -1
-24 -5 -21 -9 2 -5 -1 -8 -6 -8 -6 0 -11 6 -11 13 0 8 -4 7 -10 -3 -7 -11 -10
-11 -10 -2 0 7 -4 10 -10 7 -5 -3 -10 -1 -10 4 0 6 5 11 12 11 6 0 3 7 -8 16
-10 8 -13 13 -6 9 9 -5 11 2 7 26 -8 42 -11 45 -30 29 -12 -10 -15 -10 -15 1
0 11 -2 11 -10 -1 -6 -10 -10 -11 -10 -2 0 6 -5 12 -11 12 -5 0 -7 -6 -3 -12
4 -7 -2 -5 -13 5 -11 9 -23 14 -28 10 -4 -5 -5 -3 -2 4 4 6 17 9 30 6 20 -4
21 -3 3 7 -15 10 -16 14 -5 21 12 7 12 9 0 9 -11 0 -11 3 -1 15 11 13 6 15
-37 15 -46 0 -73 12 -73 33 0 4 4 6 9 2 5 -3 13 0 17 6 4 8 3 9 -4 5 -8 -5
-11 2 -8 22 3 26 0 30 -18 27 -12 -1 -30 -6 -41 -10 -16 -5 -17 -5 -5 4 13 9
13 11 -2 11 -10 0 -18 -6 -18 -12 0 -8 -3 -9 -8 -3 -9 12 -71 14 -79 2z m31
-15 c3 -5 -1 -9 -9 -9 -8 0 -15 4 -15 9 0 4 4 8 9 8 6 0 12 -4 15 -8z m106
-16 c0 -3 -4 -8 -10 -11 -5 -3 -10 -1 -10 4 0 6 5 11 10 11 6 0 10 -2 10 -4z
m-83 -19 c0 -8 -6 -14 -14 -14 -9 0 -10 4 -2 14 6 7 12 13 14 13 1 0 2 -6 2
-13z m-92 -79 c5 4 5 1 0 -7 -7 -12 -10 -11 -20 2 -7 9 -16 13 -20 9 -5 -4 -5
-1 0 7 7 12 10 11 20 -2 7 -9 16 -13 20 -9z m-104 -89 c-12 -13 -24 -18 -32
-13 -9 5 -10 2 -5 -12 5 -14 4 -16 -5 -7 -15 15 -3 34 18 26 10 -4 14 -2 10 4
-4 6 -1 14 5 16 26 11 28 7 9 -14z m79 -73 c0 -3 -4 -8 -10 -11 -5 -3 -10 -1
-10 4 0 6 5 11 10 11 6 0 10 -2 10 -4z m446 -44 c-17 -16 -18 -16 -5 5 7 12
15 20 18 17 3 -2 -3 -12 -13 -22z m44 -17 c0 -5 -5 -3 -10 5 -5 8 -10 20 -10
25 0 6 5 3 10 -5 5 -8 10 -19 10 -25z m-470 15 c0 -5 -2 -10 -4 -10 -3 0 -8 5
-11 10 -3 6 -1 10 4 10 6 0 11 -4 11 -10z m525 -49 c-3 -6 -11 -11 -16 -11 -5
0 -4 6 3 14 14 16 24 13 13 -3z m-365 -165 c0 -3 -4 -8 -10 -11 -5 -3 -10 -1
-10 4 0 6 5 11 10 11 6 0 10 -2 10 -4z m31 -5 c7 12 9 11 10 -1 0 -8 2 -25 3
-38 2 -13 -2 -21 -8 -19 -6 3 -10 10 -8 17 2 8 -3 10 -15 6 -14 -6 -15 -4 -6
5 6 6 10 17 9 23 -2 6 -1 7 2 2 2 -4 8 -2 13 5z m80 -128 c-12 -20 -14 -14 -5
12 4 9 9 14 11 11 3 -2 0 -13 -6 -23z m29 -13 c0 -5 -4 -10 -10 -10 -5 0 -10
5 -10 10 0 6 5 10 10 10 6 0 10 -4 10 -10z m470 -1 c0 -4 -9 -7 -19 -6 -11 0
-18 4 -16 7 6 9 35 8 35 -1z m76 -102 c13 -13 -11 -34 -31 -26 -12 4 -14 8 -6
8 11 1 10 5 -5 15 -18 14 -18 15 9 12 15 -1 30 -5 33 -9z m-436 -50 c0 -2 -11
-3 -24 -3 -15 0 -22 5 -19 13 4 9 10 10 24 2 10 -5 19 -11 19 -12z m424 -6 c3
-5 -2 -15 -12 -22 -15 -12 -16 -12 -5 2 7 9 10 19 6 22 -3 4 -4 7 0 7 3 0 8
-4 11 -9z m132 -129 c-3 -3 -1 -11 5 -18 7 -8 6 -14 -2 -20 -7 -4 -9 -3 -6 3
4 6 0 13 -8 17 -9 3 -15 0 -15 -9 0 -8 -5 -15 -11 -15 -6 0 -8 9 -4 23 7 22 7
22 -9 2 -8 -11 -16 -15 -16 -8 0 17 40 43 57 36 7 -3 11 -8 9 -11z m-509 -34
c-3 -8 -6 -5 -6 6 -1 11 2 17 5 13 3 -3 4 -12 1 -19z m477 -36 c3 -5 -1 -9 -9
-9 -8 0 -12 4 -9 9 3 4 7 8 9 8 2 0 6 -4 9 -8z m-357 -107 c0 -8 -4 -12 -9 -9
-5 3 -6 10 -3 15 9 13 12 11 12 -6z m57 -328 c-6 -19 -5 -20 9 -8 9 7 15 16
13 20 -3 4 3 7 13 7 22 0 23 -27 2 -44 -14 -11 -13 -12 9 -8 14 3 19 3 11 0
-11 -5 -11 -8 0 -16 10 -7 8 -8 -8 -3 -20 5 -21 4 -10 -19 6 -13 14 -23 18
-21 3 2 6 -3 6 -11 0 -8 -6 -13 -13 -10 -9 3 -11 -1 -7 -11 4 -10 2 -14 -5 -9
-6 3 -13 2 -17 -4 -3 -5 -10 -10 -15 -10 -11 0 -9 41 2 57 6 7 3 15 -8 21 -22
12 -28 43 -7 35 12 -5 12 -7 1 -15 -10 -7 -8 -8 6 -6 20 3 33 39 13 37 -23 -3
-40 1 -34 8 4 3 1 13 -6 22 -11 14 -10 15 7 1 18 -14 19 -13 13 3 -4 11 -3 16
4 12 5 -4 7 -16 3 -28z m531 3 c3 -6 -1 -13 -10 -16 -9 -4 -12 -11 -7 -18 10
-14 9 -27 -2 -45 -7 -11 -5 -13 10 -7 14 5 16 4 8 -4 -9 -9 -17 -8 -33 2 -18
11 -23 11 -31 -2 -7 -10 -10 -11 -10 -2 0 7 7 15 15 18 12 5 12 10 3 27 -16
29 -18 47 -6 47 6 0 8 -6 5 -13 -3 -8 1 -14 9 -14 7 0 10 5 7 10 -3 5 1 13 8
18 18 11 26 11 34 -1z m-32 -107 c3 -5 0 -17 -4 -28 -8 -18 -9 -18 -5 3 3 18
1 22 -10 18 -9 -3 -12 -1 -9 4 7 12 22 13 28 3z m24 -48 c0 -8 -4 -12 -9 -9
-4 3 -8 9 -8 15 0 5 4 9 8 9 5 0 9 -7 9 -15z m-37 -15 c0 -5 -2 -10 -4 -10 -3
0 -8 5 -11 10 -3 6 -1 10 4 10 6 0 11 -4 11 -10z m-365 -239 c3 -5 2 -12 -3
-15 -5 -3 -9 1 -9 9 0 17 3 19 12 6z m-19 -46 c-1 -8 -6 -18 -11 -22 -4 -4 -5
-2 -1 5 4 7 2 12 -6 12 -9 0 -9 3 2 10 19 12 19 13 16 -5z m34 -58 c-8 -9 -9
-7 -4 7 5 13 4 17 -4 12 -6 -3 -14 -1 -18 5 -4 8 -3 9 4 5 7 -4 12 -1 12 6 0
8 5 5 11 -5 8 -14 8 -22 -1 -30z m-15 -36 c-3 -6 -11 -11 -16 -11 -5 0 -4 6 3
14 14 16 24 13 13 -3z m10 -21 c-3 -5 -12 -10 -18 -10 -7 0 -6 4 3 10 19 12
23 12 15 0z m19 -16 c-7 -3 -10 -13 -7 -23 7 -27 -9 -32 -36 -12 -18 14 -21
20 -11 26 8 5 11 4 7 -1 -3 -6 3 -16 14 -23 18 -10 20 -10 19 6 -3 28 -1 33
13 32 8 0 8 -2 1 -5z m2 -86 c4 -7 3 -10 -1 -5 -5 4 -16 -5 -26 -20 -16 -24
-18 -25 -16 -6 0 12 4 20 8 17 4 -2 9 3 13 11 7 18 13 19 22 3z m0 -40 c4 -7
4 -10 -1 -6 -4 4 -14 0 -22 -10 -13 -15 -13 -15 -3 6 12 25 16 27 26 10z m0
-40 c4 -7 3 -10 -1 -5 -5 4 -16 -5 -26 -20 -16 -24 -18 -25 -16 -6 0 12 4 20
8 17 4 -2 9 3 13 11 7 18 13 19 22 3z m0 -40 c4 -7 3 -8 -4 -4 -7 4 -12 2 -12
-5 0 -7 -3 -10 -6 -6 -6 5 3 27 11 27 2 0 7 -5 11 -12z m-46 -18 c8 -5 11 -10
5 -10 -5 0 -17 5 -25 10 -8 5 -10 10 -5 10 6 0 17 -5 25 -10z m40 -136 c0 -8
-19 -13 -24 -6 -3 5 1 9 9 9 8 0 15 -2 15 -3z m340 -88 c0 -2 -8 -10 -17 -17
-16 -13 -17 -12 -4 4 13 16 21 21 21 13z m41 -59 c-6 -8 -8 -17 -4 -20 3 -4 1
-7 -5 -7 -15 0 -15 13 0 28 16 16 23 15 9 -1z m-46 -17 c-3 -5 0 -10 7 -11 10
0 10 -2 1 -6 -17 -6 -17 -24 -1 -20 7 1 14 -9 15 -23 2 -24 2 -24 -5 -2 -4 13
-11 24 -17 25 -15 3 -14 47 1 47 3 0 2 -4 -1 -10z m58 -53 c3 -8 -1 -14 -8
-14 -7 0 -11 6 -8 14 3 7 6 13 8 13 2 0 5 -6 8 -13z m4 -42 c0 -8 -4 -12 -9
-9 -4 3 -8 9 -8 15 0 5 4 9 8 9 5 0 9 -7 9 -15z m-533 -123 c3 -5 -1 -9 -9 -9
-8 0 -12 4 -9 9 3 4 7 8 9 8 2 0 6 -4 9 -8z m36 -41 c0 -6 -4 -12 -8 -15 -5
-3 -9 1 -9 9 0 8 4 15 9 15 4 0 8 -4 8 -9z m384 -59 c3 -5 -1 -9 -9 -9 -8 0
-12 4 -9 9 3 4 7 8 9 8 2 0 6 -4 9 -8z m-496 -75 c9 4 13 2 9 -4 -4 -6 0 -19
9 -27 11 -12 12 -16 2 -16 -10 0 -9 -3 2 -11 12 -9 12 -10 -4 -5 -11 4 -23 1
-29 -6 -6 -9 -7 -8 -3 4 3 10 0 20 -6 24 -7 4 -8 3 -4 -4 4 -7 2 -12 -4 -12
-6 0 -9 -4 -6 -8 3 -5 -1 -9 -9 -9 -11 0 -11 4 0 21 7 12 12 31 10 44 -1 14 2
19 8 13 5 -5 16 -7 25 -4z m17 -87 c-3 -5 -12 -10 -18 -10 -7 0 -6 4 3 10 19
12 23 12 15 0z m-25 -34 c0 -2 -7 -7 -16 -10 -8 -3 -12 -2 -9 4 6 10 25 14 25
6z m394 -105 c-9 -9 -34 -9 -34 -1 0 5 9 8 20 7 10 -1 17 -3 14 -6z m-459 -61
c3 -5 1 -10 -4 -10 -6 0 -11 5 -11 10 0 6 2 10 4 10 3 0 8 -4 11 -10z m0 -32
c5 4 5 1 1 -6 -6 -10 -11 -10 -22 -1 -8 6 -14 14 -14 16 0 3 6 0 13 -6 8 -6
18 -7 22 -3z m351 -50 c3 -4 -1 -5 -10 -4 -8 1 -18 5 -22 8 -3 4 1 5 10 4 8
-1 18 -5 22 -8z m23 -30 c-5 -10 -12 -18 -15 -18 -2 0 -1 8 4 18 5 9 7 24 5
32 -4 13 -3 13 6 1 6 -10 6 -21 0 -33z m-489 -68 c0 -5 -5 -10 -11 -10 -5 0
-7 5 -4 10 3 6 8 10 11 10 2 0 4 -4 4 -10z m350 -80 c0 -5 -8 -10 -17 -10 -15
0 -16 2 -3 10 19 12 20 12 20 0z m29 -39 c12 -11 18 -21 14 -23 -4 -2 -18 6
-30 19 -27 28 -15 31 16 4z m-19 -16 c11 -13 10 -14 -4 -9 -9 3 -16 10 -16 15
0 13 6 11 20 -6z m-180 -199 c0 -3 -4 -8 -10 -11 -5 -3 -10 -1 -10 4 0 6 5 11
10 11 6 0 10 -2 10 -4z m-475 -86 c3 -6 -1 -7 -9 -4 -18 7 -21 14 -7 14 6 0
13 -4 16 -10z m-145 -60 c0 -5 -5 -10 -11 -10 -5 0 -7 5 -4 10 3 6 8 10 11 10
2 0 4 -4 4 -10z m520 -15 c0 -2 -5 -7 -12 -11 -7 -5 -8 -3 -3 6 6 9 4 12 -7 8
-8 -4 -15 0 -15 7 0 10 5 11 19 4 10 -5 18 -12 18 -14z m-100 -109 c-7 -7 -13
-7 -20 0 -6 6 -3 10 10 10 13 0 16 -4 10 -10z"/>
<path d="M3830 3279 c0 -5 5 -7 10 -4 6 3 10 8 10 11 0 2 -4 4 -10 4 -5 0 -10
-5 -10 -11z"/>
<path d="M3820 3221 c0 -5 5 -13 10 -16 6 -3 10 -2 10 4 0 5 -4 13 -10 16 -5
3 -10 2 -10 -4z"/>
<path d="M3815 3180 c3 -5 8 -10 11 -10 2 0 4 5 4 10 0 6 -5 10 -11 10 -5 0
-7 -4 -4 -10z"/>
<path d="M4305 3280 c-3 -6 1 -7 9 -4 18 7 21 14 7 14 -6 0 -13 -4 -16 -10z"/>
<path d="M4287 3244 c3 -8 9 -14 15 -14 5 0 6 -5 2 -12 -4 -6 -3 -8 4 -5 15
10 8 40 -11 43 -10 1 -14 -3 -10 -12z"/>
<path d="M3711 1767 c2 -1 13 -9 24 -17 19 -14 19 -14 6 3 -7 9 -18 17 -24 17
-6 0 -8 -1 -6 -3z"/>
<path d="M3110 4690 c0 -5 5 -10 10 -10 6 0 10 5 10 10 0 6 -4 10 -10 10 -5 0
-10 -4 -10 -10z"/>
<path d="M3056 4512 c-3 -5 1 -9 9 -9 8 0 12 4 9 9 -3 4 -7 8 -9 8 -2 0 -6 -4
-9 -8z"/>
<path d="M3720 4398 c0 -5 7 -11 15 -14 8 -4 12 -10 9 -15 -3 -5 2 -6 11 -2
13 5 14 7 3 14 -12 8 -4 13 15 10 5 -1 6 3 3 8 -7 11 -56 11 -56 -1z"/>
<path d="M3139 4368 c-5 -18 -6 -38 -1 -34 7 8 12 36 6 36 -2 0 -4 -1 -5 -2z"/>
<path d="M3837 4303 c-10 -10 -8 -25 2 -19 5 3 11 -1 14 -9 6 -13 -27 -32 -46
-27 -5 1 -6 -2 -2 -8 4 -6 17 -5 36 5 26 14 28 18 18 38 -15 29 -15 28 -22 20z"/>
<path d="M3198 4288 c-7 -17 15 -19 29 -3 4 4 3 5 -4 2 -6 -4 -13 -2 -15 5 -3
8 -6 6 -10 -4z"/>
<path d="M3230 4263 c0 -6 8 -17 18 -24 16 -13 16 -13 2 6 -8 11 -16 22 -17
24 -2 2 -3 0 -3 -6z"/>
<path d="M3206 4242 c-3 -5 1 -9 9 -9 8 0 12 4 9 9 -3 4 -7 8 -9 8 -2 0 -6 -4
-9 -8z"/>
<path d="M3894 4182 c4 -3 14 -7 22 -8 9 -1 13 0 10 4 -4 3 -14 7 -22 8 -9 1
-13 0 -10 -4z"/>
<path d="M3993 4033 c4 -6 1 -14 -5 -17 -7 -2 -2 -3 11 -2 14 2 26 8 27 15 2
7 0 7 -3 1 -3 -7 -10 -7 -21 2 -10 8 -13 9 -9 1z"/>
<path d="M4030 4003 c0 -5 5 -15 10 -23 7 -12 9 -10 7 8 -1 19 -17 33 -17 15z"/>
<path d="M4040 3950 c0 -5 5 -10 11 -10 5 0 7 5 4 10 -3 6 -8 10 -11 10 -2 0
-4 -4 -4 -10z"/>
<path d="M1323 3865 c3 -7 -58 -10 -180 -10 -162 0 -186 -2 -200 -17 -14 -16
-14 -17 6 -13 12 2 19 0 16 -6 -4 -5 -14 -9 -23 -9 -14 0 -15 -2 -2 -9 8 -6
19 -7 25 -5 5 3 0 -3 -12 -14 -12 -11 -20 -22 -18 -24 3 -3 -2 -5 -10 -5 -8 0
-12 4 -9 9 8 13 -10 10 -25 -4 -9 -8 -11 -8 -8 -2 5 8 -2 11 -17 10 -18 -1
-22 -5 -17 -20 11 -27 1 -76 -15 -76 -8 0 -14 -6 -14 -12 0 -10 -3 -9 -9 1 -5
7 -14 11 -20 7 -7 -5 -8 -1 -4 10 6 15 4 15 -13 -2 -11 -10 -16 -21 -12 -22 5
-2 5 -8 2 -14 -4 -6 -7 -30 -8 -54 -1 -33 2 -40 11 -32 7 6 10 15 6 21 -3 6
-1 7 6 3 12 -8 1 -30 -23 -47 -5 -4 1 -10 13 -14 11 -3 21 -11 21 -18 0 -8 -3
-8 -12 1 -16 16 -33 15 -19 -1 8 -10 7 -17 -2 -27 -10 -10 -9 -12 6 -7 9 4 17
2 17 -3 0 -6 -8 -10 -17 -11 -12 0 -13 -2 -5 -6 10 -4 10 -8 0 -21 -10 -12
-10 -14 0 -8 6 4 12 2 12 -3 0 -6 -5 -11 -12 -11 -21 0 0 -12 27 -14 19 -3 25
0 21 11 -4 9 -1 13 6 10 7 -2 12 -9 11 -15 -2 -6 3 -9 11 -6 8 3 17 1 21 -5 3
-6 -1 -11 -9 -11 -19 0 -21 -16 -4 -26 7 -5 8 -2 3 7 -5 8 -4 11 0 6 11 -10
14 -48 3 -41 -4 3 -5 -2 -2 -10 3 -9 16 -16 29 -16 13 0 26 -7 29 -16 4 -10
13 -13 25 -9 16 5 18 1 15 -25 -2 -19 1 -30 9 -31 6 0 26 -2 42 -2 17 -1 36
-6 44 -11 8 -5 16 -4 21 4 6 10 9 9 13 -1 4 -12 7 -11 16 1 8 11 11 11 11 2 0
-15 31 -12 42 3 5 6 8 6 8 -1 0 -12 29 -12 48 0 6 4 12 3 12 -3 0 -7 8 -7 24
-1 16 6 28 5 36 -3 10 -9 11 -9 6 1 -4 6 -3 12 3 12 5 0 12 -6 14 -12 4 -10 6
-9 6 1 1 11 4 11 16 1 12 -10 15 -10 15 0 0 7 8 10 19 7 12 -3 22 1 25 9 3 8
11 14 18 14 10 0 10 -2 0 -9 -10 -6 -7 -10 12 -13 15 -3 24 -3 21 0 -3 3 2 14
12 24 9 10 13 18 8 18 -4 0 -14 -8 -21 -17 -13 -17 -14 -17 -7 2 3 11 11 23
17 27 8 5 7 8 -1 8 -7 0 -10 6 -7 14 7 17 57 28 65 14 5 -7 13 -7 25 1 14 8
15 11 4 11 -12 0 -11 3 3 11 14 8 16 14 6 25 -6 8 -8 14 -3 14 5 0 3 4 -5 9
-12 7 -11 12 1 30 8 11 19 18 24 13 4 -4 2 1 -5 11 -7 9 -10 17 -7 17 4 0 2
10 -5 21 -9 17 -8 20 2 14 9 -6 11 -3 6 8 -4 12 1 17 21 20 l27 4 -27 2 c-28
1 -37 14 -18 26 5 3 6 15 1 28 -4 12 -8 46 -7 74 1 37 -3 54 -13 58 -11 4 -10
9 5 20 10 9 15 15 9 14 -22 -3 -27 2 -15 16 9 10 9 15 1 15 -6 0 -11 -5 -11
-12 0 -6 -8 -4 -19 6 -12 11 -21 14 -26 7 -3 -6 -3 -11 2 -11 4 0 0 -5 -10
-11 -10 -6 -21 -8 -24 -5 -4 3 -1 6 7 6 10 0 10 3 0 15 -6 8 -8 20 -4 26 4 7
3 9 -4 5 -6 -3 -13 -2 -17 4 -3 5 0 10 7 10 9 0 9 3 -2 10 -10 6 -11 10 -2 10
6 0 12 8 12 18 0 13 -2 14 -9 4 -6 -11 -10 -10 -15 3 -5 15 -9 15 -23 4 -9 -8
-18 -12 -20 -11 -3 2 -8 0 -11 -4 -4 -4 -1 -4 7 1 9 5 12 4 7 -3 -4 -7 -2 -10
7 -6 8 3 20 -2 27 -11 7 -8 9 -15 5 -15 -4 0 -1 -8 6 -17 7 -10 9 -15 5 -11
-5 4 -15 3 -22 -3 -8 -6 -14 -7 -18 0 -4 6 -13 8 -21 4 -11 -4 -13 -1 -9 11 3
9 10 13 15 10 5 -3 9 0 9 7 0 7 7 4 16 -7 15 -18 15 -18 4 3 -6 14 -16 20 -25
17 -8 -4 -16 -1 -16 5 -1 6 -2 15 -3 21 0 5 -7 15 -15 22 -8 7 -11 8 -8 3z
m81 -31 c3 -8 2 -12 -4 -9 -6 3 -10 10 -10 16 0 14 7 11 14 -7z m102 -120 c-2
-6 0 -16 4 -20 5 -5 5 -15 0 -24 -6 -9 -10 -10 -10 -3 0 7 -10 10 -24 7 -31
-5 -41 28 -15 52 10 9 16 22 12 28 -4 6 3 2 16 -8 12 -11 20 -25 17 -32z
m-680 -69 c3 8 11 15 17 15 7 0 7 -4 -1 -12 -15 -15 -16 -31 0 -22 7 4 8 3 4
-4 -4 -6 -14 -8 -24 -5 -16 6 -16 5 0 -13 16 -19 16 -19 -22 -19 -30 0 -36 2
-28 12 7 9 7 13 -2 13 -10 0 -10 3 0 15 6 8 8 20 4 27 -5 7 4 5 19 -5 24 -16
28 -16 33 -2z m3 -78 c-2 -1 -13 -9 -24 -17 -19 -14 -19 -14 -6 3 7 9 18 17
24 17 6 0 8 -1 6 -3z m11 -21 c0 -2 -7 -7 -16 -10 -8 -3 -12 -2 -9 4 6 10 25
14 25 6z m-35 -27 c11 -16 1 -19 -13 -3 -7 8 -8 14 -3 14 5 0 13 -5 16 -11z
m40 2 c3 -5 2 -12 -3 -15 -5 -3 -9 1 -9 9 0 17 3 19 12 6z m-17 -43 c-6 -16
-38 -23 -38 -9 0 6 7 7 17 4 11 -4 14 -3 9 5 -4 7 -2 12 4 12 7 0 10 -6 8 -12z
m12 -27 c-7 -14 -6 -21 2 -23 8 -3 8 -7 2 -11 -5 -3 -16 3 -23 15 -7 11 -8 17
-3 14 6 -3 12 1 16 9 3 8 8 15 11 15 3 0 1 -9 -5 -19z m-33 -27 c-3 -3 -12 -4
-19 -1 -8 3 -5 6 6 6 11 1 17 -2 13 -5z m688 -43 c-3 -2 0 -10 6 -18 8 -8 8
-13 1 -13 -6 0 -12 6 -15 13 -2 6 -8 9 -12 5 -14 -13 17 -39 39 -33 19 5 19 5
3 -5 -9 -6 -14 -17 -11 -23 7 -12 -15 10 -50 51 -19 22 -19 22 -1 16 11 -4 16
-3 12 2 -3 5 3 10 13 10 11 0 17 -2 15 -5z m-36 -49 c7 -13 6 -19 -2 -19 -7 0
-13 9 -13 19 0 10 1 18 3 18 1 0 7 -8 12 -18z m-518 -36 c12 6 12 5 0 -9 -19
-23 -31 -21 -31 6 0 16 3 18 9 8 5 -8 14 -10 22 -5z m445 -22 c-4 -11 -2 -15
7 -11 8 3 14 -1 14 -8 0 -10 -5 -11 -18 -4 -16 8 -17 39 -2 39 3 0 2 -7 -1
-16z m-16 -34 c0 -3 -6 -7 -13 -7 -7 0 -13 8 -13 18 0 13 3 15 13 7 7 -6 13
-14 13 -18z"/>
<path d="M1464 3718 c-11 -12 -13 -18 -5 -13 10 6 13 4 9 -6 -4 -11 1 -15 18
-15 15 0 20 4 15 9 -5 5 -7 15 -5 22 9 23 -13 25 -32 3z m26 2 c0 -5 -5 -10
-11 -10 -5 0 -7 5 -4 10 3 6 8 10 11 10 2 0 4 -4 4 -10z"/>
<path d="M786 3631 c-8 -12 3 -41 15 -41 5 0 9 5 9 10 0 6 -6 10 -12 10 -10 0
-9 3 1 9 8 5 9 11 3 15 -6 3 -13 2 -16 -3z"/>
<path d="M880 3840 c-9 -6 -10 -10 -3 -10 6 0 15 5 18 10 8 12 4 12 -15 0z"/>
<path d="M4090 3840 c0 -5 5 -10 10 -10 6 0 10 5 10 10 0 6 -4 10 -10 10 -5 0
-10 -4 -10 -10z"/>
<path d="M4188 3658 c5 -5 16 -8 23 -6 8 3 3 7 -10 11 -17 4 -21 3 -13 -5z"/>
<path d="M4236 3653 c-6 -14 -5 -15 5 -6 7 7 10 15 7 18 -3 3 -9 -2 -12 -12z"/>
<path d="M4190 3619 c0 -5 5 -7 10 -4 6 3 10 8 10 11 0 2 -4 4 -10 4 -5 0 -10
-5 -10 -11z"/>
<path d="M4210 3600 c0 -5 5 -10 10 -10 6 0 10 5 10 10 0 6 -4 10 -10 10 -5 0
-10 -4 -10 -10z"/>
<path d="M4186 3578 c-8 -26 -2 -44 16 -44 10 0 18 4 18 8 0 4 9 8 20 8 13 0
18 5 13 15 -3 9 -11 14 -17 12 -6 -2 -19 0 -29 5 -12 6 -19 5 -21 -4z"/>
<path d="M3737 3563 c-2 -5 -3 -18 -2 -30 1 -12 -4 -24 -11 -27 -9 -3 -11 1
-7 12 8 22 -1 13 -16 -16 -12 -22 -11 -23 7 -13 13 7 23 7 32 -2 10 -9 11 -9
8 3 -3 8 -1 23 3 32 6 10 5 19 -1 23 -6 4 -8 11 -5 16 4 5 4 9 1 9 -3 0 -7 -3
-9 -7z"/>
<path d="M1586 3544 c-5 -14 -4 -15 9 -4 17 14 19 20 6 20 -5 0 -12 -7 -15
-16z"/>
<path d="M1610 3520 c0 -5 5 -10 11 -10 5 0 7 5 4 10 -3 6 -8 10 -11 10 -2 0
-4 -4 -4 -10z"/>
<path d="M3693 3455 c0 -8 4 -12 9 -9 5 3 6 10 3 15 -9 13 -12 11 -12 -6z"/>
<path d="M4310 3380 c0 -5 5 -10 11 -10 5 0 7 5 4 10 -3 6 -8 10 -11 10 -2 0
-4 -4 -4 -10z"/>
<path d="M804 3339 c-3 -6 0 -17 8 -25 13 -13 15 -13 15 0 0 8 -5 12 -10 9 -6
-4 -8 0 -4 10 7 19 2 23 -9 6z"/>
<path d="M865 3241 c2 -9 4 -20 4 -25 1 -5 4 -6 8 -3 3 4 12 2 20 -5 10 -8 17
-8 24 -1 8 8 7 13 -2 18 -8 6 -10 4 -4 -5 5 -8 3 -11 -4 -9 -20 7 -12 24 10
23 31 -1 7 15 -28 20 -24 2 -30 0 -28 -13z m30 -1 c-3 -5 -12 -10 -18 -10 -7
0 -6 4 3 10 19 12 23 12 15 0z"/>
<path d="M1127 3179 c-9 -5 -22 -7 -27 -4 -6 3 -10 4 -10 1 0 -3 10 -11 23
-17 12 -6 19 -8 15 -4 -4 4 0 14 10 21 20 16 14 18 -11 3z"/>
<path d="M1159 3173 c-8 -10 -9 -14 -2 -10 7 4 18 -2 27 -15 18 -25 40 -13 34
18 -3 19 -28 32 -28 14 0 -6 5 -8 10 -5 6 3 10 -4 10 -16 0 -21 -1 -22 -20 -4
-11 10 -17 22 -14 26 9 16 -3 10 -17 -8z"/>
<path d="M1230 3179 c0 -5 5 -7 10 -4 6 3 10 8 10 11 0 2 -4 4 -10 4 -5 0 -10
-5 -10 -11z"/>
<path d="M1081 3153 c-1 -17 16 -25 25 -12 4 7 3 9 -4 5 -5 -3 -13 0 -15 6 -4
9 -6 10 -6 1z"/>
<path d="M1050 3139 c0 -5 5 -7 10 -4 6 3 10 8 10 11 0 2 -4 4 -10 4 -5 0 -10
-5 -10 -11z"/>
<path d="M1139 3148 c-6 -21 -5 -37 2 -32 5 3 7 10 4 15 -10 15 7 10 28 -8 19
-18 19 -17 6 5 -11 18 -36 30 -40 20z"/>
<path d="M1215 3120 c-3 -6 1 -7 9 -4 18 7 21 14 7 14 -6 0 -13 -4 -16 -10z"/>
<path d="M3780 3120 c8 -5 20 -10 25 -10 6 0 3 5 -5 10 -8 5 -19 10 -25 10 -5
0 -3 -5 5 -10z"/>
<path d="M3826 3121 c-4 -5 3 -7 14 -4 23 6 26 13 6 13 -8 0 -17 -4 -20 -9z"/>
<path d="M3796 3047 c3 -10 9 -15 12 -12 3 3 0 11 -7 18 -10 9 -11 8 -5 -6z"/>
<path d="M4415 2811 c3 -5 0 -11 -7 -13 -7 -3 -5 -7 6 -11 9 -4 15 -3 11 2 -3
5 0 11 7 13 7 3 5 7 -6 11 -9 4 -15 3 -11 -2z"/>
<path d="M4433 2755 c0 -8 4 -12 9 -9 5 3 6 10 3 15 -9 13 -12 11 -12 -6z"/>
<path d="M4404 2699 c-3 -6 0 -17 8 -25 13 -13 15 -13 15 0 0 8 -5 12 -10 9
-6 -4 -8 0 -4 10 7 19 2 23 -9 6z"/>
<path d="M4390 2660 c0 -5 5 -10 11 -10 5 0 7 5 4 10 -3 6 -8 10 -11 10 -2 0
-4 -4 -4 -10z"/>
<path d="M4381 2604 c0 -11 3 -14 6 -6 3 7 2 16 -1 19 -3 4 -6 -2 -5 -13z"/>
<path d="M4414 2601 c0 -11 5 -17 13 -14 10 4 11 9 2 19 -15 18 -15 18 -15 -5z"/>
<path d="M4395 2560 c-3 -5 -1 -10 4 -10 6 0 11 5 11 10 0 6 -2 10 -4 10 -3 0
-8 -4 -11 -10z"/>
<path d="M4417 2516 c-4 -10 -1 -13 8 -9 8 3 12 9 9 14 -7 12 -11 11 -17 -5z"/>
<path d="M4366 2493 c-6 -14 -5 -15 5 -6 7 7 10 15 7 18 -3 3 -9 -2 -12 -12z"/>
<path d="M4406 2482 c-3 -5 1 -9 9 -9 8 0 12 4 9 9 -3 4 -7 8 -9 8 -2 0 -6 -4
-9 -8z"/>
<path d="M4396 2398 c3 -5 10 -6 15 -3 13 9 11 12 -6 12 -8 0 -12 -4 -9 -9z"/>
<path d="M3850 2180 c-9 -6 -10 -10 -3 -10 6 0 15 5 18 10 8 12 4 12 -15 0z"/>
<path d="M1155 2170 c-4 -6 -11 -8 -16 -4 -6 3 -5 -3 3 -15 7 -12 17 -21 21
-21 5 0 7 -7 4 -14 -4 -10 -1 -13 8 -10 11 5 12 10 2 25 -6 10 -16 19 -21 19
-4 0 -3 7 4 15 7 8 10 15 7 15 -3 0 -9 -5 -12 -10z"/>
<path d="M1181 2169 c-1 -20 25 -56 35 -46 4 4 2 7 -5 7 -7 0 -9 5 -6 10 3 6
2 10 -4 10 -5 0 -12 8 -14 18 -4 13 -5 14 -6 1z"/>
<path d="M3823 2166 c11 -15 8 -28 -5 -20 -7 4 -8 3 -4 -5 4 -6 12 -8 18 -5 8
5 9 1 5 -10 -4 -10 -3 -15 3 -11 14 9 12 20 -7 42 -10 10 -15 14 -10 9z"/>
<path d="M1066 2162 c-3 -5 1 -9 9 -9 8 0 15 4 15 9 0 4 -4 8 -9 8 -6 0 -12
-4 -15 -8z"/>
<path d="M1221 2153 c0 -11 3 -13 6 -5 2 6 10 9 15 6 7 -4 8 -2 4 4 -11 18
-26 14 -25 -5z"/>
<path d="M1096 2141 c-4 -5 3 -7 14 -4 23 6 26 13 6 13 -8 0 -17 -4 -20 -9z"/>
<path d="M1067 2127 c-3 -8 1 -14 8 -14 7 0 11 6 8 14 -3 7 -6 13 -8 13 -2 0
-5 -6 -8 -13z"/>
<path d="M1123 2123 c9 -2 14 -9 11 -15 -4 -7 -2 -8 5 -4 15 10 4 26 -17 25
-15 -1 -15 -2 1 -6z"/>
<path d="M3790 2120 c-12 -7 -10 -9 7 -7 12 0 19 5 17 9 -6 10 -6 10 -24 -2z"/>
<path d="M1096 2103 c-7 -8 -24 -10 -113 -15 -35 -1 -63 -6 -63 -10 0 -8 15
-12 35 -9 6 1 -1 -8 -14 -19 -25 -21 -41 -26 -41 -11 0 5 8 12 18 14 15 4 15
5 0 6 -21 1 -30 -12 -22 -33 4 -11 10 -13 18 -8 6 5 18 9 28 9 13 0 14 -4 5
-19 -7 -10 -14 -13 -15 -8 -3 7 -9 7 -18 -1 -11 -9 -14 -9 -14 0 0 7 -4 10 -9
6 -5 -3 -13 0 -17 6 -4 8 -3 9 4 5 8 -5 10 -2 6 9 -9 23 -19 7 -23 -37 -1 -5
-5 -8 -11 -8 -5 0 -7 8 -4 18 5 14 4 14 -4 2 -6 -8 -9 -17 -6 -21 2 -4 0 -10
-6 -14 -5 -3 -10 -12 -10 -18 0 -7 4 -6 10 3 7 12 10 11 16 -5 4 -11 10 -24
12 -30 3 -5 -2 -4 -11 4 -15 12 -17 12 -11 -4 5 -13 4 -16 -4 -11 -7 4 -12 3
-12 -3 0 -6 -9 -15 -20 -21 -14 -7 -20 -7 -20 0 0 5 7 10 15 10 8 0 15 8 14
18 0 11 -2 12 -6 4 -4 -10 -8 -10 -21 0 -12 10 -14 10 -8 1 5 -9 1 -13 -11
-14 -10 0 -13 -3 -5 -6 6 -2 12 -11 12 -18 0 -7 -6 -16 -12 -18 -10 -4 -10 -6
0 -6 6 -1 12 -6 12 -12 0 -5 -3 -8 -8 -6 -4 3 -7 -8 -7 -23 -1 -16 2 -27 6
-24 9 5 23 -35 15 -43 -3 -4 -6 1 -6 10 0 10 -4 17 -9 17 -5 0 -8 -6 -7 -12 3
-25 17 -37 34 -32 13 5 14 4 3 -4 -9 -6 -10 -12 -3 -16 6 -4 16 3 22 14 9 16
8 20 -6 20 -10 0 -15 3 -11 6 3 4 13 4 22 0 13 -5 14 -10 5 -27 -11 -19 -10
-20 12 -15 12 3 17 3 11 0 -14 -6 -17 -30 -5 -37 4 -2 1 -2 -7 0 -9 2 -11 -2
-7 -13 3 -8 6 -20 6 -25 0 -5 10 -9 23 -10 l22 0 -22 -9 c-13 -5 -23 -12 -23
-15 0 -4 4 -4 9 -1 5 3 11 -1 15 -9 3 -10 -1 -15 -12 -16 -10 0 -12 -3 -4 -6
6 -2 12 -11 12 -18 0 -7 8 -12 18 -10 9 1 28 -2 41 -7 22 -8 23 -7 10 8 -13
16 -12 16 8 4 16 -10 19 -18 12 -26 -7 -8 -6 -15 2 -20 7 -4 9 -3 6 3 -3 5 0
10 8 10 10 0 12 -4 5 -12 -15 -18 13 -68 28 -53 7 7 12 8 12 4 0 -5 8 -2 17 5
10 8 14 9 10 2 -4 -6 -3 -14 3 -18 5 -3 10 -1 10 5 0 6 5 8 12 4 16 -10 149
-12 169 -3 8 4 21 4 28 -1 8 -4 26 -4 41 0 15 4 34 4 43 -1 10 -6 18 -5 22 1
4 6 11 8 16 4 5 -3 9 -2 8 3 -3 20 2 27 10 14 5 -8 18 -16 28 -17 13 -2 10 4
-12 22 l-30 26 34 -17 c18 -9 30 -12 26 -6 -12 20 -16 63 -5 56 5 -3 10 -1 10
5 0 6 4 9 9 5 5 -3 13 -1 16 5 5 8 11 8 21 -1 10 -8 17 -7 29 5 12 12 13 16 3
16 -10 0 -9 3 2 10 13 9 13 10 0 10 -13 0 -13 2 0 11 13 9 13 10 -2 6 -21 -7
-18 16 7 43 14 15 15 20 4 20 -9 0 -10 3 -3 8 6 4 10 22 8 40 -2 29 0 32 19
27 22 -6 22 -6 2 7 -20 13 -36 56 -16 43 7 -3 8 0 5 9 -3 9 -14 16 -23 16 -11
1 -8 5 9 15 14 8 20 14 14 15 -6 0 -11 12 -12 28 0 15 -4 41 -7 57 -5 23 -4
26 4 15 7 -9 11 -10 11 -3 0 6 -4 14 -10 18 -5 3 -7 12 -3 20 4 11 1 13 -11 9
-9 -4 -16 -3 -14 2 3 10 -11 14 -29 7 -19 -8 -48 2 -45 15 1 7 -2 22 -8 33 -9
15 -7 21 5 26 13 5 14 7 3 14 -18 12 -31 11 -23 -1 3 -5 1 -10 -4 -10 -6 0
-11 4 -11 8 0 8 -5 9 -102 13 -32 1 -58 6 -58 11 0 4 -5 8 -11 8 -5 0 -8 -4
-5 -8 6 -9 -85 -9 -100 1 -6 3 -14 3 -18 0z m278 -41 c-5 -4 -12 -11 -15 -15
-3 -5 -9 -2 -12 5 -3 9 3 14 15 15 11 1 16 -1 12 -5z m18 -27 c-8 -16 -9 -16
-15 -1 -4 10 -3 15 3 11 6 -3 10 -1 10 6 0 7 3 10 6 6 3 -3 2 -13 -4 -22z
m-22 -17 c0 -4 -4 -8 -9 -8 -6 0 -12 4 -15 8 -3 5 1 9 9 9 8 0 15 -4 15 -9z
m31 -11 c-10 -9 -11 -8 -5 6 3 10 9 15 12 12 3 -3 0 -11 -7 -18z m91 -19 c-16
-16 -15 -29 2 -22 8 3 17 1 20 -4 3 -5 -6 -9 -19 -9 -14 0 -25 5 -25 11 0 12
20 36 29 36 3 0 0 -5 -7 -12z m-625 -24 c-3 -3 -12 -4 -19 -1 -8 3 -5 6 6 6
11 1 17 -2 13 -5z m590 -10 c-3 -3 -12 -4 -19 -1 -8 3 -5 6 6 6 11 1 17 -2 13
-5z m13 -25 c0 -8 5 -7 15 1 9 7 18 10 22 6 3 -3 0 -6 -8 -6 -12 0 -11 -2 1
-10 11 -8 9 -9 -12 -6 -15 3 -29 -1 -31 -7 -3 -7 -4 -2 -4 11 1 22 17 32 17
11z m-624 -51 c4 -7 4 -10 -1 -6 -4 4 -17 1 -29 -7 -11 -8 -25 -15 -31 -15 -7
0 37 33 52 39 1 1 5 -5 9 -11z m-9 -32 c-3 -8 -1 -16 6 -19 7 -2 7 -6 1 -10
-5 -3 -16 3 -23 15 -7 11 -8 17 -2 13 6 -3 11 -1 11 4 0 6 3 11 6 11 3 0 4 -6
1 -14z m-53 -25 c3 -5 -1 -11 -9 -14 -9 -4 -12 -1 -8 9 6 16 10 17 17 5z m26
-21 c-8 -5 -19 -10 -25 -10 -5 0 -3 5 5 10 8 5 20 10 25 10 6 0 3 -5 -5 -10z
m23 -21 c-8 -8 -13 -7 -18 2 -5 8 -4 10 3 5 7 -4 12 -2 12 5 0 7 3 9 7 6 4 -4
2 -12 -4 -18z m630 -183 c-3 -5 -1 -6 6 -2 6 4 9 12 6 17 -4 5 -3 9 2 9 4 0
13 -11 20 -25 6 -14 7 -25 2 -25 -5 0 -9 -5 -9 -11 0 -5 5 -7 12 -3 7 5 8 3 3
-6 -6 -10 -11 -10 -20 4 -11 15 -13 15 -19 1 -3 -9 -11 -13 -17 -9 -9 5 -7 11
4 19 9 7 14 15 10 18 -3 4 -13 1 -21 -6 -13 -10 -14 -9 -7 3 10 15 11 20 14
43 1 8 4 8 10 -3 6 -8 7 -18 4 -24z m-103 -76 c0 13 1 13 10 0 9 -13 10 -13
10 0 0 13 1 13 10 0 8 -12 10 -12 10 -1 0 20 10 8 15 -17 2 -15 0 -19 -11 -15
-8 3 -14 9 -14 15 0 5 -5 6 -11 3 -6 -4 -8 -13 -5 -20 2 -7 -5 -21 -17 -31
-12 -11 -19 -15 -15 -10 4 5 2 16 -5 24 -10 13 -9 14 2 7 11 -7 13 -2 8 26 -5
24 -4 30 3 19 9 -13 10 -13 10 0z"/>
<path d="M1475 1580 c3 -5 8 -10 11 -10 2 0 4 5 4 10 0 6 -5 10 -11 10 -5 0
-7 -4 -4 -10z"/>
<path d="M3783 2085 c-12 -9 -13 -14 -4 -19 9 -6 9 -11 0 -22 -9 -11 -9 -14 0
-14 7 0 9 -5 4 -12 -4 -7 -9 -22 -10 -32 -3 -15 1 -14 18 8 11 14 24 24 28 21
5 -2 17 3 27 11 10 9 14 13 8 10 -7 -3 -17 1 -23 8 -10 11 -8 17 6 26 17 11
17 11 -1 6 -13 -4 -17 -2 -13 7 6 17 -18 18 -40 2z m32 -24 c2 -11 7 -27 11
-34 4 -6 3 -9 -1 -4 -5 4 -18 -1 -29 -10 -14 -12 -17 -13 -11 -3 12 18 13 40
1 59 -6 10 -5 12 2 7 7 -4 12 -2 12 5 0 18 10 5 15 -20z"/>
<path d="M865 2080 c-3 -5 -3 -10 2 -10 4 0 1 -5 -7 -10 -25 -16 3 -11 30 6
25 15 25 15 1 8 -16 -4 -21 -3 -17 5 4 6 5 11 2 11 -3 0 -8 -4 -11 -10z"/>
<path d="M4279 2088 c-5 -14 -4 -60 1 -63 4 -3 7 5 6 18 -1 14 4 21 13 19 12
-3 12 0 1 12 -12 15 -19 19 -21 14z"/>
<path d="M796 1978 c3 -5 10 -6 15 -3 13 9 11 12 -6 12 -8 0 -12 -4 -9 -9z"/>
<path d="M764 1963 c4 -4 16 -8 28 -10 28 -4 18 6 -12 12 -12 2 -20 1 -16 -2z"/>
<path d="M4296 1962 c-3 -5 1 -9 9 -9 8 0 12 4 9 9 -3 4 -7 8 -9 8 -2 0 -6 -4
-9 -8z"/>
<path d="M4267 1939 c7 -7 15 -10 18 -7 3 3 -2 9 -12 12 -14 6 -15 5 -6 -5z"/>
<path d="M1573 1765 c0 -8 7 -11 16 -7 14 5 14 4 1 -14 -14 -19 -14 -19 8 0
12 11 22 21 22 24 0 3 -3 2 -6 -1 -4 -3 -14 -2 -24 3 -12 6 -17 5 -17 -5z"/>
<path d="M4210 1760 c0 -5 5 -10 11 -10 5 0 7 5 4 10 -3 6 -8 10 -11 10 -2 0
-4 -4 -4 -10z"/>
<path d="M4186 1717 c3 -10 9 -15 12 -12 3 3 0 11 -7 18 -10 9 -11 8 -5 -6z"/>
<path d="M756 1712 c-4 -7 -1 -12 6 -12 11 0 10 -2 0 -9 -11 -7 -10 -9 3 -14
11 -5 14 -3 9 6 -4 6 2 4 13 -6 14 -12 23 -15 28 -8 8 14 -4 33 -16 25 -6 -3
-16 2 -23 12 -9 12 -15 14 -20 6z"/>
<path d="M4165 1700 c-3 -5 -1 -10 4 -10 6 0 11 5 11 10 0 6 -2 10 -4 10 -3 0
-8 -4 -11 -10z"/>
<path d="M755 1660 c-3 -5 -1 -10 4 -10 6 0 11 5 11 10 0 6 -2 10 -4 10 -3 0
-8 -4 -11 -10z"/>
<path d="M768 1648 c-10 -10 -15 -18 -10 -19 43 -5 59 -3 59 7 0 23 -31 31
-49 12z"/>
<path d="M4165 1660 c3 -5 8 -10 11 -10 2 0 4 5 4 10 0 6 -5 10 -11 10 -5 0
-7 -4 -4 -10z"/>
<path d="M4197 1652 c-15 -16 -15 -19 -2 -19 8 0 13 3 10 5 -3 3 0 11 6 19 17
20 5 16 -14 -5z"/>
<path d="M1515 1620 c-3 -5 -1 -10 4 -10 6 0 11 5 11 10 0 6 -2 10 -4 10 -3 0
-8 -4 -11 -10z"/>
<path d="M3605 1600 c3 -5 8 -10 11 -10 2 0 4 5 4 10 0 6 -5 10 -11 10 -5 0
-7 -4 -4 -10z"/>
<path d="M3590 1582 c0 -6 9 -12 20 -15 11 -3 19 -11 17 -19 -2 -7 -2 -9 1 -5
2 4 11 2 20 -5 11 -8 10 -4 -3 11 -23 27 -55 46 -55 33z"/>
<path d="M870 1519 c-13 -9 -13 -10 1 -6 9 3 23 0 30 -6 11 -10 11 -9 0 6 -7
9 -14 17 -15 17 0 0 -8 -5 -16 -11z"/>
<path d="M4073 1505 c0 -8 4 -12 9 -9 4 3 8 9 8 15 0 5 -4 9 -8 9 -5 0 -9 -7
-9 -15z"/>
<path d="M4110 1497 c-13 -10 -12 -15 9 -37 l25 -25 -17 27 c-12 20 -13 28 -4
31 6 2 10 7 7 10 -3 3 -12 0 -20 -6z"/>
<path d="M4142 1480 c0 -14 2 -19 5 -12 2 6 2 18 0 25 -3 6 -5 1 -5 -13z"/>
<path d="M899 1473 c-13 -17 -12 -17 4 -3 17 13 21 12 38 -10 10 -14 19 -20
19 -14 0 11 -32 44 -42 44 -3 0 -12 -8 -19 -17z"/>
<path d="M3570 1479 c0 -5 5 -7 10 -4 6 3 10 8 10 11 0 2 -4 4 -10 4 -5 0 -10
-5 -10 -11z"/>
<path d="M3511 1391 c13 -11 26 -17 28 -15 5 5 -30 33 -43 34 -4 0 2 -9 15
-19z"/>
<path d="M3995 1301 c-3 -6 3 -14 13 -20 14 -7 19 -6 19 4 0 7 -7 11 -15 7
-10 -3 -13 -1 -8 6 4 7 5 12 2 12 -3 0 -7 -4 -11 -9z"/>
<path d="M3423 1213 c-13 -8 -23 -20 -23 -25 0 -7 5 -6 13 1 8 6 17 9 20 6 4
-3 5 -2 2 2 -3 3 0 12 6 20 15 17 10 16 -18 -4z"/>
<path d="M3786 1003 c-6 -14 -5 -15 5 -6 7 7 10 15 7 18 -3 3 -9 -2 -12 -12z"/>
<path d="M3827 1007 c-3 -8 1 -14 9 -14 16 0 19 13 5 21 -5 3 -11 0 -14 -7z"/>
<path d="M3765 970 c-3 -6 1 -7 9 -4 18 7 21 14 7 14 -6 0 -13 -4 -16 -10z"/>
<path d="M3696 937 c1 -12 3 -24 3 -26 2 -8 31 22 31 32 0 6 -3 7 -7 4 -3 -4
-11 -2 -18 3 -8 7 -11 3 -9 -13z"/>
<path d="M3747 916 c-6 -16 1 -26 17 -26 6 0 4 5 -4 10 -10 6 -11 10 -2 10 6
0 12 5 12 10 0 15 -17 12 -23 -4z"/>
<path d="M2999 786 c-6 -9 -5 -35 1 -31 4 3 11 -3 14 -12 5 -12 10 -13 18 -5
6 6 16 8 23 6 15 -6 16 18 1 31 -9 8 -53 16 -57 11z m48 -19 c2 -3 -3 -7 -11
-10 -8 -3 -20 0 -26 8 -10 12 -8 13 10 10 13 -2 25 -6 27 -8z"/>
<path d="M2997 729 c10 -10 10 -16 0 -28 -10 -14 -10 -14 5 -3 11 9 18 9 23 3
4 -7 12 -7 25 1 15 10 16 15 8 26 -10 12 -14 11 -25 -4 -7 -10 -13 -13 -13 -7
0 6 -8 14 -17 18 -14 5 -15 4 -6 -6z"/>
</g>
</svg>
